<svg width="21" height="19" viewBox="0 0 21 19" fill="none" xmlns="http://www.w3.org/2000/svg">
<path d="M10.1667 4.66667V17.5M10.1667 4.66667C10.1667 3.69421 9.78036 2.76158 9.09272 2.07394C8.40509 1.38631 7.47246 1 6.5 1H1.91667C1.67355 1 1.44039 1.09658 1.26849 1.26849C1.09658 1.44039 1 1.67355 1 1.91667V13.8333C1 14.0764 1.09658 14.3096 1.26849 14.4815C1.44039 14.6534 1.67355 14.75 1.91667 14.75H7.41667C8.14601 14.75 8.84549 15.0397 9.36121 15.5555C9.87694 16.0712 10.1667 16.7707 10.1667 17.5M10.1667 4.66667C10.1667 3.69421 10.553 2.76158 11.2406 2.07394C11.9282 1.38631 12.8609 1 13.8333 1H18.4167C18.6598 1 18.8929 1.09658 19.0648 1.26849C19.2368 1.44039 19.3333 1.67355 19.3333 1.91667V13.8333C19.3333 14.0764 19.2368 14.3096 19.0648 14.4815C18.8929 14.6534 18.6598 14.75 18.4167 14.75H12.9167C12.1873 14.75 11.4878 15.0397 10.9721 15.5555C10.4564 16.0712 10.1667 16.7707 10.1667 17.5" stroke="#003366" stroke-width="2" stroke-linecap="round" stroke-linejoin="round"/>
</svg>
