<svg width="25" height="25" viewBox="0 0 25 25" fill="none" xmlns="http://www.w3.org/2000/svg">
<path fill-rule="evenodd" clip-rule="evenodd" d="M12.5 2.5C6.97715 2.5 2.5 6.97715 2.5 12.5C2.5 18.0228 6.97715 22.5 12.5 22.5C18.0228 22.5 22.5 18.0228 22.5 12.5C22.5 6.97715 18.0228 2.5 12.5 2.5ZM0 12.5C0 5.59644 5.59644 0 12.5 0C19.4036 0 25 5.59644 25 12.5C25 19.4036 19.4036 25 12.5 25C5.59644 25 0 19.4036 0 12.5ZM12.5 6.25C13.1904 6.25 13.75 6.80964 13.75 7.5V12.5C13.75 13.1904 13.1904 13.75 12.5 13.75C11.8096 13.75 11.25 13.1904 11.25 12.5V7.5C11.25 6.80964 11.8096 6.25 12.5 6.25Z" fill="#F5C393"/>
<path d="M13.75 17.5C13.75 18.1904 13.1904 18.75 12.5 18.75C11.8096 18.75 11.25 18.1904 11.25 17.5C11.25 16.8096 11.8096 16.25 12.5 16.25C13.1904 16.25 13.75 16.8096 13.75 17.5Z" fill="#F5C393"/>
</svg>
