<svg width="24" height="26" viewBox="0 0 24 26" fill="none" xmlns="http://www.w3.org/2000/svg">
<path fill-rule="evenodd" clip-rule="evenodd" d="M11.8235 2.54655C6.59953 2.54655 2.3647 7.10707 2.3647 12.7328C2.3647 18.3584 6.59953 22.919 11.8235 22.919C17.0474 22.919 21.2823 18.3584 21.2823 12.7328C21.2823 7.10707 17.0474 2.54655 11.8235 2.54655ZM0 12.7328C0 5.70065 5.29355 0 11.8235 0C18.3534 0 23.6469 5.70065 23.6469 12.7328C23.6469 19.7649 18.3534 25.4655 11.8235 25.4655C5.29355 25.4655 0 19.7649 0 12.7328ZM11.8235 6.36638C12.4765 6.36638 13.0058 6.93645 13.0058 7.63966V12.7328C13.0058 13.436 12.4765 14.006 11.8235 14.006C11.1705 14.006 10.6411 13.436 10.6411 12.7328V7.63966C10.6411 6.93645 11.1705 6.36638 11.8235 6.36638Z" fill="black"/>
<path d="M13.0058 17.8259C13.0058 18.5291 12.4765 19.0991 11.8235 19.0991C11.1705 19.0991 10.6411 18.5291 10.6411 17.8259C10.6411 17.1227 11.1705 16.5526 11.8235 16.5526C12.4765 16.5526 13.0058 17.1227 13.0058 17.8259Z" fill="black"/>
</svg>
