<svg width="27" height="26" viewBox="0 0 27 26" fill="none" xmlns="http://www.w3.org/2000/svg">
<path d="M13.4413 0.5C10.8818 0.5 8.37969 1.23311 6.2515 2.60663C4.12332 3.98015 2.4646 5.93238 1.4851 8.21646C0.505607 10.5005 0.249326 13.0139 0.748669 15.4386C1.24801 17.8634 2.48055 20.0907 4.29042 21.8388C6.1003 23.587 8.40621 24.7775 10.9166 25.2598C13.4269 25.7421 16.029 25.4946 18.3937 24.5485C20.7584 23.6024 22.7796 22.0002 24.2016 19.9446C25.6236 17.889 26.3826 15.4723 26.3826 13C26.3796 9.68568 25.0152 6.50792 22.5889 4.16434C20.1626 1.82076 16.8726 0.502878 13.4413 0.5ZM13.4413 24.413C11.1043 24.413 8.81983 23.7437 6.8767 22.4896C4.93358 21.2355 3.4191 19.453 2.52477 17.3676C1.63045 15.2821 1.39645 12.9873 1.85238 10.7734C2.3083 8.55951 3.43366 6.5259 5.08615 4.92976C6.73864 3.33362 8.84405 2.24663 11.1361 1.80625C13.4282 1.36588 15.804 1.5919 17.9631 2.45572C20.1222 3.31955 21.9676 4.78239 23.2659 6.65925C24.5643 8.53612 25.2573 10.7427 25.2573 13C25.2543 16.026 24.0084 18.9273 21.7932 21.0671C19.5779 23.2068 16.5742 24.4102 13.4413 24.413Z" fill="#FF7900"/>
<path d="M14.004 13.1088V5.39138C14.004 5.24724 13.9447 5.109 13.8392 5.00708C13.7337 4.90516 13.5906 4.8479 13.4413 4.8479C13.2921 4.8479 13.149 4.90516 13.0435 5.00708C12.938 5.109 12.8787 5.24724 12.8787 5.39138V13.3479C12.8783 13.4217 12.8942 13.4948 12.9252 13.5622C12.9563 13.6297 13.0018 13.69 13.0587 13.7392L18.6854 18.8262C18.7345 18.8761 18.7939 18.9155 18.8599 18.9417C18.9258 18.9679 18.9967 18.9804 19.068 18.9783C19.1795 18.9768 19.288 18.9434 19.3798 18.8822C19.4716 18.821 19.5424 18.7349 19.5834 18.6347C19.6244 18.5346 19.6337 18.4249 19.6101 18.3196C19.5864 18.2144 19.5309 18.1183 19.4506 18.0436L14.004 13.1088Z" fill="#FF7900"/>
<path d="M13.4413 0.5C10.8818 0.5 8.37969 1.23311 6.2515 2.60663C4.12332 3.98015 2.4646 5.93238 1.4851 8.21646C0.505607 10.5005 0.249326 13.0139 0.748669 15.4386C1.24801 17.8634 2.48055 20.0907 4.29042 21.8388C6.1003 23.587 8.40621 24.7775 10.9166 25.2598C13.4269 25.7421 16.029 25.4946 18.3937 24.5485C20.7584 23.6024 22.7796 22.0002 24.2016 19.9446C25.6236 17.889 26.3826 15.4723 26.3826 13C26.3796 9.68568 25.0152 6.50792 22.5889 4.16434C20.1626 1.82076 16.8726 0.502878 13.4413 0.5ZM13.4413 24.413C11.1043 24.413 8.81983 23.7437 6.8767 22.4896C4.93358 21.2355 3.4191 19.453 2.52477 17.3676C1.63045 15.2821 1.39645 12.9873 1.85238 10.7734C2.3083 8.55951 3.43366 6.5259 5.08615 4.92976C6.73864 3.33362 8.84405 2.24663 11.1361 1.80625C13.4282 1.36588 15.804 1.5919 17.9631 2.45572C20.1222 3.31955 21.9676 4.78239 23.2659 6.65925C24.5643 8.53612 25.2573 10.7427 25.2573 13C25.2543 16.026 24.0084 18.9273 21.7932 21.0671C19.5779 23.2068 16.5742 24.4102 13.4413 24.413Z" stroke="#FF9500"/>
<path d="M14.004 13.1088V5.39138C14.004 5.24724 13.9447 5.109 13.8392 5.00708C13.7337 4.90516 13.5906 4.8479 13.4413 4.8479C13.2921 4.8479 13.149 4.90516 13.0435 5.00708C12.938 5.109 12.8787 5.24724 12.8787 5.39138V13.3479C12.8783 13.4217 12.8942 13.4948 12.9252 13.5622C12.9563 13.6297 13.0018 13.69 13.0587 13.7392L18.6854 18.8262C18.7345 18.8761 18.7939 18.9155 18.8599 18.9417C18.9258 18.9679 18.9967 18.9804 19.068 18.9783C19.1795 18.9768 19.288 18.9434 19.3798 18.8822C19.4716 18.821 19.5424 18.7349 19.5834 18.6347C19.6244 18.5346 19.6337 18.4249 19.6101 18.3196C19.5864 18.2144 19.5309 18.1183 19.4506 18.0436L14.004 13.1088Z" stroke="#FF9500"/>
</svg>
