<svg width="25" height="25" viewBox="0 0 25 25" fill="none" xmlns="http://www.w3.org/2000/svg">
<path d="M4.44178 21.3937H9.32118C9.64714 21.3937 9.92036 21.2729 10.1408 21.0312C10.3613 20.7896 10.4715 20.4901 10.4715 20.1328V17.125C10.4715 16.7677 10.3613 16.4682 10.1408 16.2266C9.92036 15.9849 9.64714 15.8641 9.32118 15.8641H4.44178C4.11487 15.8641 3.84118 15.9849 3.62071 16.2266C3.40023 16.4682 3.29 16.7682 3.29 17.1266V20.1313C3.29 20.4885 3.40023 20.788 3.62071 21.0297C3.84118 21.2714 4.11487 21.3937 4.44178 21.3937ZM4.44178 13.8203H9.32118C9.64714 13.8203 9.92036 13.6995 10.1408 13.4578C10.3613 13.2161 10.4715 12.9167 10.4715 12.5594V4.86875C10.4715 4.51042 10.3613 4.21042 10.1408 3.96875C9.92036 3.72708 9.64667 3.60625 9.31976 3.60625H4.44178C4.11487 3.60625 3.84118 3.72708 3.62071 3.96875C3.40023 4.21042 3.29 4.51042 3.29 4.86875V12.5609C3.29 12.9182 3.40023 13.2177 3.62071 13.4594C3.84118 13.701 4.11487 13.8203 4.44178 13.8203ZM13.4878 21.3937H18.3673C18.6932 21.3937 18.9664 21.2729 19.1869 21.0312C19.4074 20.7896 19.5176 20.4901 19.5176 20.1328V12.4375C19.5176 12.0802 19.4074 11.7807 19.1869 11.5391C18.9664 11.2974 18.6927 11.1766 18.3658 11.1766H13.4878C13.1609 11.1766 12.8872 11.2974 12.6668 11.5391C12.4463 11.7807 12.3361 12.0807 12.3361 12.4391V20.1313C12.3361 20.4885 12.4463 20.788 12.6668 21.0297C12.8872 21.2714 13.1609 21.3937 13.4878 21.3937ZM13.4878 9.13281H18.3673C18.6932 9.13281 18.9664 9.01198 19.1869 8.77031C19.4074 8.52865 19.5176 8.22917 19.5176 7.87188V4.86875C19.5176 4.51042 19.4074 4.21042 19.1869 3.96875C18.9664 3.72708 18.6932 3.60625 18.3673 3.60625H13.485C13.159 3.60625 12.8858 3.72708 12.6653 3.96875C12.4449 4.21042 12.3346 4.5099 12.3346 4.86719V7.87188C12.3346 8.23021 12.4449 8.53021 12.6653 8.77188C12.8858 9.01354 13.1595 9.13437 13.4864 9.13437M2.30357 25C1.6469 25 1.09904 24.7594 0.659995 24.2781C0.220948 23.7969 0.000950317 23.1958 0 22.475V2.525C0 1.80521 0.219998 1.20469 0.659995 0.723437C1.09999 0.242187 1.64785 0.00104167 2.30357 0H20.5055C21.1612 0 21.709 0.241146 22.149 0.723437C22.589 1.20573 22.8086 1.80625 22.8076 2.525V5.88906H24.2887C24.4901 5.88906 24.6593 5.96406 24.7961 6.11406C24.932 6.26406 25 6.45 25 6.67188C25 6.89375 24.932 7.07917 24.7961 7.22813C24.6603 7.37708 24.4906 7.45156 24.2873 7.45156H22.8076V11.7188H24.2887C24.4901 11.7188 24.6593 11.7937 24.7961 11.9438C24.933 12.0938 25.0009 12.2797 25 12.5016C24.999 12.7234 24.9311 12.9089 24.7961 13.0578C24.6612 13.2068 24.4916 13.2812 24.2873 13.2812H22.8076V17.5469H24.2887C24.4901 17.5469 24.6593 17.6224 24.7961 17.7734C24.933 17.9245 25.0009 18.1104 25 18.3313C24.999 18.5521 24.9311 18.7375 24.7961 18.8875C24.6612 19.0375 24.4916 19.112 24.2873 19.1109H22.8076V22.475C22.8076 23.1948 22.5881 23.7953 22.149 24.2766C21.71 24.7578 21.1617 24.999 20.504 25H2.30357ZM2.30357 23.4375H20.5055C20.724 23.4375 20.925 23.3375 21.1084 23.1375C21.2919 22.9375 21.3831 22.7167 21.3821 22.475V2.525C21.3821 2.28438 21.2909 2.06354 21.1084 1.8625C20.926 1.66146 20.7245 1.56146 20.504 1.5625H2.30357C2.08405 1.5625 1.88258 1.6625 1.69917 1.8625C1.51576 2.0625 1.42453 2.28333 1.42548 2.525V22.4766C1.42548 22.7161 1.51671 22.9365 1.69917 23.1375C1.88163 23.3385 2.08262 23.4385 2.30214 23.4375" fill="black"/>
</svg>
