<svg width="32" height="31" viewBox="0 0 32 31" fill="none" xmlns="http://www.w3.org/2000/svg">
<path d="M16 0L0 8.31563L16 19.4028L23.6206 14.1221L16.4716 11.0929C16.3244 11.1908 16.1633 11.2418 16 11.2423C15.7092 11.2423 15.4304 11.0822 15.2248 10.7973C15.0192 10.5123 14.9037 10.1259 14.9037 9.72293C14.9037 9.31997 15.0192 8.93352 15.2248 8.64859C15.4304 8.36365 15.7092 8.20358 16 8.20358L15.8187 9.02042L17.0888 9.56198L17.0894 9.56729L18.9636 10.3616L29.6352 14.912V16.0654C29.4876 16.2046 29.3667 16.3916 29.2831 16.6102C29.1995 16.8288 29.1557 17.0724 29.1555 17.3198C29.1557 17.5729 29.2015 17.8219 29.2888 18.0442C29.3761 18.2665 29.502 18.4551 29.6552 18.5928C29.1562 21.2066 29.1555 27.1369 29.1555 29.4746C30.2518 30.4617 30.2518 30.4978 31.3481 29.4746C31.3481 27.1372 31.3476 21.208 30.8486 18.5937C31.0019 18.4558 31.1279 18.2671 31.2151 18.0446C31.3023 17.8221 31.3481 17.5729 31.3481 17.3197C31.3481 17.072 31.3044 16.8281 31.2208 16.6092C31.1372 16.3903 31.0162 16.203 30.8685 16.0637V13.6498L26.8037 11.9165L32 8.31563L16 0ZM6.65567 15.1356L5.7565 22.6128C7.54997 22.9378 9.69535 24.3825 11.6676 26.0909C12.7892 27.0625 13.8398 28.129 14.6931 29.1638C15.2146 29.7962 15.6508 30.403 16 31C16.3492 30.4029 16.7854 29.7962 17.3069 29.1638C18.1602 28.129 19.2107 27.0625 20.3324 26.0909C22.3046 24.3825 24.45 22.9378 26.2435 22.6128L25.3442 15.1356H24.916L16 21.314L7.08391 15.1356H6.65567Z" fill="#FFCC00"/>
</svg>
