<svg width="22" height="25" viewBox="0 0 22 25" fill="none" xmlns="http://www.w3.org/2000/svg">
<path d="M4.4 0H17.6C18.767 0 19.8861 0.415882 20.7113 1.15616C21.5364 1.89643 22 2.90046 22 3.94737V21.0526C22 22.0995 21.5364 23.1036 20.7113 23.8438C19.8861 24.5841 18.767 25 17.6 25H4.4C3.23305 25 2.11389 24.5841 1.28873 23.8438C0.46357 23.1036 0 22.0995 0 21.0526V3.94737C0 2.90046 0.46357 1.89643 1.28873 1.15616C2.11389 0.415882 3.23305 0 4.4 0ZM4.4 1.31579C3.62203 1.31579 2.87593 1.59304 2.32582 2.08656C1.77571 2.58008 1.46667 3.24943 1.46667 3.94737V21.0526C1.46667 21.7506 1.77571 22.4199 2.32582 22.9134C2.87593 23.407 3.62203 23.6842 4.4 23.6842H17.6C18.378 23.6842 19.1241 23.407 19.6742 22.9134C20.2243 22.4199 20.5333 21.7506 20.5333 21.0526V3.94737C20.5333 3.24943 20.2243 2.58008 19.6742 2.08656C19.1241 1.59304 18.378 1.31579 17.6 1.31579H13.2V10.1316L8.8 7.36842L4.4 10.1316V1.31579ZM11.7333 1.31579H5.86667V7.60526L8.8 5.76316L11.7333 7.60526V1.31579ZM7.33333 21.0526V18.4211H4.4V17.1053H7.33333V14.4737H8.8V17.1053H11.7333V18.4211H8.8V21.0526H7.33333Z" fill="black"/>
</svg>
